PathFileType	4	(X/Y/Z)	SUBJ24_1_walk_RCNL2025.trc
DataRate	CameraRate	NumFrames	NumMarkers	Units	OrigDataRate	OrigDataStartFrame	OrigNumFrames
100	100	10	25	mm	100	84	335
Frame#	Time	R_Shoulder			L_Shoulder			C7			J_Notch			R_Elbow			L_Elbow			R_Wrist			L_Wrist			R_Asis			L_Asis			Sacral			Thoracic			Sternum			R_Thigh_Lateral			R_Knee_Lateral			R_Shank_Lateral			R_Ankle_Lateral			R_Heel			R_Toe			L_Thigh_Lateral			L_Knee_Lateral			L_Shank_Lateral			L_Ankle_Lateral			L_Heel			L_Toe		
		X1	Y1	Z1	X2	Y2	Z2	X3	Y3	Z3	X4	Y4	Z4	X5	Y5	Z5	X6	Y6	Z6	X7	Y7	Z7	X8	Y8	Z8	X9	Y9	Z9	X10	Y10	Z10	X11	Y11	Z11	X12	Y12	Z12	X13	Y13	Z13	X14	Y14	Z14	X15	Y15	Z15	X16	Y16	Z16	X17	Y17	Z17	X18	Y18	Z18	X19	Y19	Z19	X20	Y20	Z20	X21	Y21	Z21	X22	Y22	Z22	X23	Y23	Z23	X24	Y24	Z24	X25	Y25	Z25
84	0.83000000	-1795.779907	1297.550415	371.416077	-1838.140137	1304.275146	27.614908	-1898.058472	1362.900024	209.053360	-1764.517822	1271.728149	196.640045	-1744.437134	1025.072510	472.211304	-1945.543091	1025.519653	-45.223125	-1573.687866	868.186310	417.825043	-1948.767517	789.253387	-33.933321	-1798.166626	863.816040	366.466583	-1778.900757	854.800110	41.153599	-1962.236328	899.397278	199.646576	-1968.632446	1096.255737	205.743332	-1693.025391	1057.918823	189.845596	-1934.342407	566.147644	382.089569	-1911.079834	426.089020	296.735779	-1969.291382	288.595856	338.020691	-2050.443115	71.047287	252.501389	-2098.312012	53.443638	193.302444	-1927.966797	31.592844	247.289780	-1731.221191	549.891541	23.093121	-1663.837036	440.554108	82.643494	-1635.762695	289.007233	36.089344	-1554.601196	75.300385	106.627762	-1582.340454	38.748081	169.738846	-1429.709351	92.390442	122.297493
85	0.84000000	-1783.651978	1295.484863	371.469818	-1825.498657	1302.403809	27.557787	-1885.607788	1360.908325	208.977661	-1751.960571	1269.804565	196.685623	-1730.936279	1023.419434	472.011841	-1934.985596	1024.122192	-44.396378	-1558.480774	868.349426	417.767899	-1940.846741	787.868530	-32.042719	-1785.475586	862.320496	367.039764	-1765.850220	852.656128	41.468678	-1949.168335	897.187378	199.708023	-1955.956909	1094.224976	205.469101	-1680.376831	1056.065308	190.281189	-1924.059937	565.828064	382.476929	-1901.412354	425.191467	297.425018	-1962.566162	288.658264	338.427795	-2049.057617	73.164429	252.789200	-2097.414795	56.770824	193.649826	-1927.453491	31.549732	247.315857	-1721.001343	546.137573	24.540249	-1651.502563	438.093719	85.162704	-1618.888916	287.747223	38.441998	-1531.843384	75.969376	109.180977	-1559.035400	38.581764	172.098633	-1407.108643	95.744995	125.696503
86	0.85000000	-1771.448364	1293.586304	371.431274	-1812.802734	1300.584961	27.375465	-1873.092285	1358.986328	208.758194	-1739.293091	1268.022583	196.599197	-1717.766235	1021.773254	471.729614	-1923.839844	1022.646606	-43.774349	-1543.835388	868.236908	417.802780	-1932.128418	786.456665	-30.314258	-1772.617065	860.823547	367.554413	-1752.557861	850.683167	41.778870	-1935.943481	895.135010	199.733536	-1943.100708	1092.250610	205.200577	-1667.576782	1054.353149	190.569611	-1913.444458	565.449707	382.901855	-1891.309570	424.202057	298.228485	-1955.457397	288.743927	338.976746	-2047.539917	75.553734	253.312683	-2096.438721	60.489292	194.257523	-1926.907349	31.523291	247.385818	-1709.546753	543.087402	26.015017	-1638.489136	436.051422	87.463142	-1602.895996	286.553223	40.705643	-1512.592896	76.095833	111.822296	-1539.666260	38.211941	174.507278	-1388.026123	97.350807	129.357071
87	0.86000000	-1759.124268	1291.880005	371.293732	-1800.058960	1298.835693	27.065239	-1860.496460	1357.155640	208.402817	-1726.501221	1266.393188	196.379745	-1704.931641	1020.155701	471.388062	-1912.113403	1021.096924	-43.357651	-1529.768066	867.843842	417.929291	-1922.597229	785.017090	-28.768845	-1759.580933	859.330322	368.007874	-1739.021851	848.906555	42.087814	-1922.547363	893.253113	199.728210	-1930.047974	1090.352661	204.959763	-1654.604614	1052.802734	190.697556	-1902.468872	565.005615	383.378967	-1880.766968	423.124603	299.167633	-1947.968994	288.873871	339.689178	-2045.858521	78.242332	254.093201	-2095.338379	64.635139	195.140961	-1926.306763	31.505396	247.510544	-1696.671265	540.854309	27.470922	-1624.826294	434.402924	89.527328	-1587.845459	285.295563	42.884071	-1496.806274	75.458801	114.516533	-1524.215454	37.424576	176.909744	-1372.399048	97.016327	133.245575
88	0.87000000	-1746.637451	1290.381958	371.047058	-1787.269897	1297.171021	26.625675	-1847.807739	1355.435425	207.920059	-1713.576294	1264.925659	196.027222	-1692.428345	1018.588623	471.006805	-1899.829102	1019.481384	-43.142014	-1516.290039	867.163971	418.145523	-1912.235901	783.546143	-27.424463	-1746.354614	857.844727	368.393799	-1725.248535	847.346313	42.384209	-1908.965576	891.546631	199.696060	-1916.794067	1088.550537	204.764023	-1641.442505	1051.430908	190.659637	-1891.121704	564.494629	383.908508	-1869.781250	421.968262	300.265167	-1940.108643	289.075928	340.583984	-2043.971436	81.253731	255.138718	-2094.048096	69.246475	196.304169	-1925.631836	31.482599	247.695282	-1682.404053	539.441895	28.863335	-1610.616943	433.101746	91.356110	-1573.737671	283.907196	44.974064	-1484.262695	73.994804	117.187500	-1512.462769	36.155998	179.212616	-1360.004150	94.728073	137.279404
89	0.88000000	-1733.952393	1289.099976	370.681580	-1774.430176	1295.601807	26.060059	-1835.015991	1353.844482	207.319351	-1700.514893	1263.629395	195.542328	-1680.242798	1017.093750	470.601379	-1887.018555	1017.810181	-43.117386	-1503.407043	866.192749	418.448364	-1901.032654	782.041992	-26.291245	-1732.926270	856.371399	368.705963	-1711.244873	846.023621	42.644508	-1895.190063	890.019653	199.640381	-1903.344971	1086.864746	204.622253	-1628.075439	1050.249756	190.458679	-1879.400757	563.920349	384.478760	-1858.343628	420.747437	301.541992	-1931.875977	289.379761	341.675598	-2041.819946	84.603836	256.443939	-2092.477539	74.362419	197.739456	-1924.869629	31.437822	247.940079	-1666.985352	538.758606	30.169607	-1596.017822	432.095490	92.957916	-1560.479980	282.397400	46.959106	-1474.572266	71.801971	119.733597	-1503.984009	34.501709	181.312637	-1350.458130	90.660866	141.326447
90	0.89000000	-1721.044067	1288.037231	370.192474	-1761.521484	1294.131592	25.380564	-1822.115234	1352.404175	206.610962	-1687.319092	1262.516846	194.929565	-1668.354248	1015.694153	470.183319	-1873.713745	1016.095032	-43.265881	-1491.119812	864.929932	418.832413	-1888.984497	780.506592	-25.372277	-1719.286865	854.916931	368.940765	-1697.014893	844.965698	42.841251	-1881.226318	888.683105	199.566116	-1889.706543	1085.316650	204.530838	-1614.490356	1049.268677	190.108002	-1867.306152	563.290527	385.068298	-1846.429443	419.477539	303.013672	-1923.253174	289.814545	342.972717	-2039.324707	88.305458	257.997498	-2090.504883	80.023567	199.430801	-1924.017578	31.350008	248.240768	-1650.788330	538.668335	31.377104	-1581.213989	431.344513	94.343613	-1547.885498	280.851898	48.810661	-1467.204346	69.114990	122.048233	-1498.184326	32.690060	183.120224	-1343.245483	85.161835	145.220154
91	0.90000000	-1707.901855	1287.196655	369.582947	-1748.512085	1292.759033	24.610600	-1809.104004	1351.144653	205.805756	-1673.997314	1261.604858	194.199539	-1656.737671	1014.414429	469.759155	-1859.939575	1014.351562	-43.560795	-1479.425415	863.380249	419.289673	-1876.093689	778.943817	-24.670222	-1705.434204	853.491333	369.094696	-1682.568359	844.211365	42.952927	-1867.098022	887.559326	199.483917	-1875.877197	1083.931030	204.476837	-1600.679199	1048.498169	189.632477	-1854.828857	562.613281	385.649780	-1833.988770	418.171753	304.687347	-1914.196411	290.411652	344.479218	-2036.381348	92.374649	259.788177	-2087.969971	86.274353	201.357681	-1923.082397	31.194302	248.589645	-1634.226929	539.037659	32.461571	-1566.385376	430.845367	95.522804	-1535.699707	279.423889	50.491299	-1461.542969	66.256157	124.037651	-1494.369019	31.021334	184.571136	-1337.774658	78.703430	148.790085
92	0.91000000	-1694.528931	1286.587280	368.866333	-1735.362793	1291.484131	23.784325	-1795.986206	1350.106567	204.916702	-1660.564575	1260.917847	193.369003	-1645.367676	1013.281006	469.329285	-1845.709351	1012.603149	-43.967937	-1468.320862	861.554077	419.811783	-1862.364929	777.362091	-24.191018	-1691.376587	852.110535	369.158051	-1667.939819	843.814514	42.970242	-1852.849854	886.681946	199.414124	-1861.855103	1082.738159	204.447083	-1586.645630	1047.954712	189.062958	-1841.938599	561.888245	386.196838	-1820.939453	416.842346	306.560089	-1904.628662	291.209351	346.194763	-2032.854370	96.833191	261.805054	-2084.668457	93.164703	203.494965	-1922.075439	30.947618	248.977234	-1617.695679	539.755676	33.379589	-1551.670898	430.642700	96.501091	-1523.638794	278.308899	51.954868	-1456.978516	63.562370	125.637985	-1491.850586	29.777494	185.632843	-1333.467651	71.817108	151.898666
93	0.92000000	-1680.940308	1286.228149	368.065948	-1722.042236	1290.317749	22.941595	-1782.771484	1349.340820	203.963043	-1647.043579	1260.489624	192.460785	-1634.220337	1012.323975	468.887390	-1831.025513	1010.884521	-44.448437	-1457.807129	859.468109	420.392853	-1847.808044	775.782806	-23.941926	-1677.135620	850.799316	369.111176	-1653.205322	843.840576	42.896904	-1838.544556	886.087646	199.389038	-1847.659058	1081.776245	204.437744	-1572.414307	1047.658569	188.430542	-1828.574463	561.098389	386.692657	-1807.163696	415.503326	308.620392	-1894.433716	292.253937	348.113037	-2028.572510	101.709091	264.032990	-2080.351318	100.748672	205.808334	-1921.005859	30.599216	249.392807	-1601.530518	540.732483	34.076664	-1537.140259	430.813812	97.280609	-1511.449341	277.691589	53.148022	-1453.032959	61.298721	126.834938	-1490.070679	29.124338	186.313446	-1329.877441	65.022896	154.473129
